<?xml version="1.0" standalone="no"?> <!DOCTYPE svg PUBLIC "-//W3C//DTD SVG 20010904//EN" "http://www.w3.org/TR/2001/REC-SVG-20010904/DTD/svg10.dtd"> <svg version="1.0" xmlns="http://www.w3.org/2000/svg" width="600.000000pt" height="467.000000pt" viewBox="0 0 600.000000 467.000000" preserveAspectRatio="xMidYMid meet"> <g transform="translate(0.000000,467.000000) scale(0.100000,-0.100000)" fill="#ffd500" stroke="none"> <path d="M2888 4010 c-293 -50 -549 -248 -679 -525 -81 -172 -82 -182 -85 -930 -2 -363 1 -662 6 -665 6 -4 1790 -5 1823 -1 4 1 6 306 4 679 -3 616 -5 683 -22 747 -111 426 -475 709 -904 704 -53 -1 -117 -5 -143 -9z m221 -75 c40 -80 161 -211 257 -278 38 -26 119 -79 179 -119 141 -91 231 -171 316 -281 52 -67 69 -97 69 -120 0 -18 3 -49 6 -69 9 -52 -5 -47 -41 13 -16 28 -63 82 -103 120 -113 108 -195 156 -402 234 -251 95 -414 191 -558 329 -77 73 -138 154 -126 166 20 18 161 52 252 59 53 5 102 9 108 10 6 0 26 -28 43 -64z m252 1 c229 -87 426 -283 512 -511 22 -60 57 -181 57 -199 0 -18 -20 0 -48 43 -38 58 -188 202 -263 252 -30 20 -107 71 -171 113 -158 103 -305 254 -332 342 -6 21 -6 21 75 7 45 -8 121 -29 170 -47z m-674 -39 c19 -42 119 -152 190 -209 142 -115 294 -199 493 -273 200 -74 309 -137 408 -235 51 -50 118 -135 139 -175 14 -27 27 -155 16 -155 -5 0 -20 24 -33 53 -33 73 -137 172 -231 219 -104 53 -160 70 -450 143 -343 85 -460 132 -606 241 -93 70 -203 189 -203 220 0 17 95 94 186 150 38 24 72 43 75 43 3 1 11 -9 16 -22z m-147 -366 c32 -27 73 -57 89 -67 17 -10 31 -22 31 -25 0 -11 -78 -72 -130 -101 -62 -36 -98 -76 -171 -193 -76 -121 -94 -162 -109 -242 -12 -70 -11 -77 46 -260 35 -114 52 -135 74 -94 5 11 10 31 10 45 0 37 11 32 45 -22 49 -76 90 -63 67 22 -7 29 -7 45 0 54 7 8 8 34 2 75 -11 88 -9 215 5 265 12 41 15 44 117 94 117 57 130 70 189 191 39 78 44 84 61 68 20 -19 174 -62 449 -126 335 -78 485 -170 582 -358 l33 -62 0 -442 0 -443 -220 0 c-121 0 -220 4 -220 9 0 5 24 21 54 36 84 42 106 70 229 278 41 69 67 154 67 218 0 41 -87 319 -99 319 -16 0 -34 -31 -41 -68 l-6 -37 -22 42 c-27 51 -60 77 -79 61 -16 -13 -17 -42 -2 -69 8 -16 7 -29 -5 -53 -8 -18 -14 -41 -12 -52 2 -10 9 -47 16 -81 8 -40 10 -90 5 -138 -9 -97 -30 -124 -127 -161 -101 -38 -150 -89 -178 -186 -21 -69 -27 -93 -29 -110 -1 -5 -251 -8 -556 -8 l-555 0 0 74 0 74 462 0 c337 -1 463 2 466 11 2 6 -2 11 -10 11 -7 0 -217 0 -465 0 l-453 0 0 65 0 66 527 -2 c394 -2 528 1 531 9 3 9 -128 12 -527 12 l-531 0 0 65 0 65 623 2 c406 2 622 6 622 13 0 7 -216 11 -623 13 l-624 2 5 433 c5 451 6 470 53 594 24 63 78 158 133 233 l44 60 48 -65 c27 -35 76 -87 109 -114z m248 -159 c34 -15 40 -21 29 -30 -10 -9 -31 -3 -86 23 -62 30 -71 38 -61 50 11 13 16 13 44 -5 18 -10 51 -28 74 -38z m-71 -24 c38 -18 70 -34 72 -35 2 -1 -10 -31 -27 -67 -36 -75 -72 -106 -164 -146 -40 -16 -91 -49 -125 -80 -32 -28 -79 -63 -105 -76 -84 -43 -108 -25 -34 25 24 17 80 70 123 117 43 47 101 101 128 120 79 53 109 80 101 92 -8 13 -196 -127 -221 -165 -26 -40 -169 -175 -173 -164 -5 14 11 41 103 181 62 92 94 132 124 150 23 14 58 37 79 52 20 15 40 28 44 28 4 0 38 -15 75 -32z m-254 -439 c-4 -40 0 -106 7 -155 9 -58 10 -88 3 -95 -29 -29 -58 230 -33 295 18 49 29 28 23 -45z m-60 -47 c-6 -75 11 -151 53 -235 44 -89 26 -106 -27 -24 -48 74 -57 104 -65 213 -5 77 -4 98 7 105 33 20 38 10 32 -59z m-77 38 c7 0 12 -26 13 -71 1 -39 6 -92 12 -118 13 -55 13 -131 1 -143 -5 -5 -14 11 -22 39 -7 26 -21 75 -32 108 -11 33 -22 91 -25 129 -6 69 -6 69 18 63 13 -4 29 -7 35 -7z m1332 -214 c44 -69 62 -139 62 -242 0 -52 -3 -65 -19 -74 -11 -5 -21 -10 -23 -10 -2 0 -3 46 -3 103 -1 95 -3 107 -37 186 -32 72 -39 101 -23 101 2 0 21 -29 43 -64z m92 17 c0 -8 13 -58 29 -111 28 -89 35 -132 32 -187 -1 -18 -6 -20 -36 -17 -34 4 -34 4 -29 46 4 23 -1 80 -10 127 -23 121 -21 179 5 163 5 -3 9 -12 9 -21z m-120 -87 c32 -86 35 -251 5 -293 -20 -28 -27 -11 -18 48 5 30 5 77 1 104 -19 140 -21 165 -9 165 6 0 16 -11 21 -24z m160 -251 c0 -2 -26 -26 -59 -52 -32 -26 -84 -77 -115 -114 -31 -36 -88 -87 -126 -115 -38 -27 -70 -55 -70 -63 0 -7 6 -11 14 -8 30 12 143 104 186 152 73 83 175 176 178 165 2 -6 -23 -52 -55 -103 -33 -50 -70 -109 -82 -129 -23 -39 -115 -127 -135 -129 -59 -7 -226 -2 -226 6 0 29 45 124 73 152 17 18 60 44 97 59 43 16 91 47 136 85 77 67 128 98 162 99 12 0 22 -2 22 -5z m-388 -425 c70 0 79 -2 68 -15 -9 -11 -35 -15 -101 -15 -49 0 -89 2 -89 4 0 19 15 36 27 32 8 -3 51 -6 95 -6z"/> <path d="M3021 3021 c-9 -6 -12 -19 -8 -39 6 -29 5 -30 -31 -30 -83 -1 -205 -69 -275 -152 -37 -43 -74 -117 -82 -163 -7 -34 -10 -37 -41 -37 -39 0 -42 -7 -13 -44 l20 -26 454 0 454 0 16 30 c23 44 20 52 -20 44 -34 -6 -35 -5 -35 23 0 17 -13 56 -30 89 -63 127 -211 234 -326 234 -38 0 -46 7 -34 31 7 13 6 22 -6 33 -18 18 -24 19 -43 7z m90 -95 c37 -8 90 -27 120 -41 93 -48 183 -158 203 -250 l6 -30 -400 0 c-457 0 -412 -12 -361 100 52 111 176 203 301 224 30 5 57 9 60 10 3 0 35 -6 71 -13z m389 -346 c2 0 -1 -5 -7 -11 -13 -13 -897 -13 -901 0 -2 5 7 11 20 13 16 2 783 1 888 -2z"/> <path d="M2842 2833 c-51 -35 -132 -140 -132 -169 0 -27 38 -15 45 14 12 51 84 130 138 153 27 12 38 39 14 39 -7 0 -36 -16 -65 -37z"/> <path d="M1820 1579 c-52 -21 -89 -59 -109 -114 -18 -47 -19 -63 -10 -103 30 -137 189 -196 303 -114 50 36 53 46 21 60 -21 10 -25 9 -25 -3 0 -25 -61 -55 -110 -55 -85 0 -150 65 -150 150 0 82 66 150 145 150 41 0 110 -32 118 -55 7 -18 33 -20 43 -3 4 6 -8 25 -28 44 -53 48 -138 67 -198 43z"/> <path d="M4086 1582 c-13 -12 -6 -243 8 -276 53 -126 228 -125 281 1 15 35 22 262 9 275 -3 3 -13 4 -22 1 -15 -3 -17 -21 -17 -138 l0 -134 -34 -30 c-64 -57 -155 -35 -181 45 -7 21 -11 79 -9 146 3 98 2 111 -13 114 -9 1 -19 -1 -22 -4z"/> <path d="M2270 1567 c0 -16 -118 -294 -138 -324 -12 -20 -12 -23 2 -29 26 -10 38 0 55 46 l17 45 95 3 96 3 21 -51 c15 -37 26 -50 41 -50 26 0 26 10 3 52 -10 18 -33 71 -52 118 -18 47 -36 90 -40 95 -4 6 -14 31 -24 58 -16 41 -21 47 -47 47 -17 0 -29 -5 -29 -13z m30 -27 c0 -5 6 -9 13 -7 6 1 11 -4 9 -12 -3 -16 33 -117 54 -149 9 -13 13 -26 10 -29 -6 -7 -158 -4 -165 2 -2 3 1 11 7 18 20 24 64 150 59 169 -3 10 -1 18 4 18 5 0 9 -4 9 -10z"/> <path d="M2502 1563 c3 -14 15 -17 68 -18 l65 0 -3 -168 -3 -168 23 3 c23 3 23 4 23 168 l1 165 67 3 c51 2 67 6 67 17 0 13 -26 15 -156 15 -142 0 -155 -2 -152 -17z"/> <path d="M2910 1396 l0 -184 132 2 c118 1 133 3 136 19 3 15 -7 17 -112 17 l-116 0 0 68 0 67 91 -4 c68 -2 94 0 100 10 4 7 5 17 3 21 -7 11 -156 10 -174 -2 -21 -13 -25 0 -22 75 l4 66 101 -1 c133 -2 127 -2 127 15 0 13 -22 15 -135 15 l-135 0 0 -184z"/> <path d="M3277 1398 c1 -171 2 -183 20 -183 16 0 18 9 18 80 l0 79 55 -3 c62 -3 67 -7 122 -103 25 -43 39 -57 56 -58 12 0 22 4 22 8 0 12 -100 155 -114 164 -6 4 5 5 25 2 31 -5 39 -2 62 26 43 51 33 121 -23 153 -22 13 -53 17 -137 17 l-108 0 2 -182z m227 131 c31 -25 34 -66 7 -100 -17 -21 -29 -24 -108 -27 l-89 -4 2 74 c1 40 3 74 3 76 1 1 36 2 80 2 64 0 83 -4 105 -21z"/> <path d="M3849 1537 c-97 -113 -178 -220 -173 -229 4 -5 50 -8 108 -7 l101 3 0 -45 c0 -39 3 -44 24 -47 23 -4 24 -2 17 39 -4 23 -14 47 -22 53 -17 13 -9 46 11 46 10 0 13 29 14 115 2 114 2 115 -21 115 -14 -1 -37 -17 -59 -43z m61 -5 c0 -4 -5 -13 -12 -20 -6 -6 -11 -46 -12 -93 l-1 -82 -77 1 c-43 0 -79 1 -81 1 -1 1 24 29 56 64 32 34 67 79 78 100 17 32 49 52 49 29z"/> <path d="M3926 1325 c-14 -11 -16 -15 -5 -15 8 0 24 -3 37 -6 18 -5 22 -2 22 15 0 25 -25 28 -54 6z"/> <path d="M520 983 c0 -5 14 -28 31 -53 18 -26 29 -54 27 -69 -2 -13 3 -26 10 -28 8 -3 12 6 12 27 0 19 12 49 30 75 34 49 36 55 17 55 -8 0 -22 -16 -33 -35 -10 -19 -22 -35 -26 -35 -5 0 -16 16 -25 35 -15 30 -43 49 -43 28z"/> <path d="M830 983 c-73 -29 -62 -134 16 -149 42 -8 77 8 93 43 16 35 14 48 -15 82 -25 30 -56 38 -94 24z m68 -29 c44 -31 16 -104 -40 -104 -21 0 -58 34 -58 54 0 21 40 66 59 66 9 0 27 -7 39 -16z"/> <path d="M1060 936 c0 -91 62 -137 118 -87 18 15 22 29 22 80 0 47 -3 61 -15 61 -10 0 -15 -16 -17 -61 -2 -46 -8 -65 -20 -73 -34 -21 -53 4 -56 73 -2 45 -7 61 -17 61 -11 0 -15 -13 -15 -54z"/> <path d="M1317 983 c-10 -20 -1 -147 11 -150 8 -3 12 7 12 31 0 51 28 48 63 -6 19 -31 37 -37 37 -13 0 8 -4 15 -9 15 -16 0 -23 34 -8 45 47 35 13 85 -57 85 -25 0 -47 -3 -49 -7z m91 -22 c23 -14 10 -46 -21 -49 -43 -5 -55 3 -50 32 4 20 11 26 32 26 14 0 32 -4 39 -9z"/> <path d="M1713 913 l2 -78 54 -3 c30 -2 59 2 64 7 8 8 -4 11 -41 11 -49 0 -52 2 -52 25 0 23 4 25 40 25 22 0 40 5 40 10 0 6 -20 10 -44 10 -41 0 -43 1 -38 25 4 22 9 25 48 25 24 0 44 5 44 10 0 6 -26 10 -59 10 l-59 0 1 -77z"/> <path d="M1956 968 c17 -55 59 -138 68 -135 11 4 14 9 50 85 29 61 31 72 13 72 -7 0 -22 -25 -33 -54 -10 -30 -23 -55 -29 -55 -5 0 -19 25 -29 55 -11 30 -26 54 -34 54 -9 0 -11 -7 -6 -22z"/> <path d="M2220 910 l0 -81 55 3 c63 3 71 21 10 22 -34 1 -41 5 -43 24 -3 20 1 22 43 22 28 0 44 4 40 10 -3 6 -24 10 -46 10 -35 0 -39 3 -39 25 0 23 3 25 50 25 28 0 50 5 50 10 0 6 -27 10 -60 10 l-60 0 0 -80z"/> <path d="M2460 910 c0 -47 4 -80 10 -80 6 0 10 26 10 58 l1 57 22 -27 c12 -15 32 -41 45 -58 13 -16 28 -30 33 -30 5 0 9 36 9 80 0 47 -4 80 -10 80 -11 0 -13 -9 -10 -61 2 -56 -14 -54 -54 6 -20 30 -41 55 -46 55 -6 0 -10 -34 -10 -80z"/> <path d="M2710 980 c0 -5 11 -10 25 -10 24 0 25 -2 25 -70 0 -57 3 -70 16 -70 13 0 15 12 13 68 -3 66 -2 67 24 70 53 6 26 22 -38 22 -37 0 -65 -4 -65 -10z"/> <path d="M3135 965 c-50 -49 -15 -135 55 -135 37 0 90 47 90 78 0 11 -12 34 -26 51 -33 40 -83 43 -119 6z m93 -11 c42 -29 18 -104 -35 -104 -27 0 -63 33 -63 58 0 24 36 62 58 62 10 0 28 -7 40 -16z"/> <path d="M3394 928 c7 -68 29 -98 70 -98 44 0 66 36 66 110 0 37 -4 50 -12 47 -9 -2 -12 -20 -10 -53 3 -40 -1 -53 -17 -68 -18 -16 -25 -17 -46 -8 -23 10 -25 17 -25 72 0 49 -3 60 -16 60 -14 0 -16 -9 -10 -62z"/> <path d="M3648 983 c-10 -21 -2 -147 10 -151 8 -2 12 8 12 32 0 49 32 50 61 1 12 -19 25 -35 30 -35 13 0 11 13 -7 38 -14 20 -14 25 -1 35 46 38 14 87 -57 87 -25 0 -46 -3 -48 -7z m97 -43 c0 -22 -5 -25 -37 -28 -36 -3 -38 -2 -38 28 0 30 2 31 38 28 32 -3 37 -6 37 -28z"/> <path d="M4043 913 c2 -61 6 -78 17 -78 10 0 14 9 12 28 -3 24 0 27 28 27 44 0 70 17 70 45 0 37 -25 55 -80 55 l-49 0 2 -77z m101 34 c13 -21 -5 -37 -45 -37 -33 0 -37 5 -31 36 4 21 9 25 35 22 16 -2 35 -11 41 -21z"/> <path d="M4321 968 c-5 -13 -19 -45 -30 -71 -12 -27 -21 -53 -21 -58 0 -18 22 -9 27 11 4 16 14 20 45 20 31 0 41 -4 45 -20 5 -18 33 -30 33 -14 0 17 -72 154 -80 154 -6 0 -14 -10 -19 -22z m39 -44 c11 -29 6 -44 -15 -44 -20 0 -28 17 -21 46 8 31 24 31 36 -2z"/> <path d="M4542 978 c-15 -15 -16 -55 0 -64 6 -4 25 -10 42 -14 22 -4 31 -12 31 -25 0 -27 -42 -33 -60 -8 -10 13 -17 15 -25 7 -9 -9 -6 -16 11 -28 30 -20 73 -21 93 0 31 31 16 56 -44 71 -25 7 -35 15 -35 29 0 24 37 31 55 9 16 -19 30 -19 30 0 0 30 -73 48 -98 23z"/> <path d="M4778 965 c-11 -25 -10 -29 11 -46 13 -11 31 -19 41 -19 21 0 44 -25 35 -40 -9 -15 -46 -12 -66 6 -22 19 -46 9 -28 -12 29 -36 119 -24 119 16 0 21 -35 50 -60 50 -25 0 -42 21 -29 37 15 18 48 17 55 -2 6 -15 34 -21 34 -7 -1 20 -21 34 -58 39 -38 5 -42 3 -54 -22z"/> <path d="M5010 910 c0 -61 3 -81 13 -77 8 2 12 27 12 77 0 50 -4 75 -12 78 -10 3 -13 -17 -13 -78z"/> <path d="M5186 974 c-43 -42 -44 -87 -4 -124 49 -45 138 -7 138 58 0 63 -92 108 -134 66z m81 -12 c21 -13 31 -55 20 -80 -24 -51 -107 -30 -107 28 0 43 52 74 87 52z"/> <path d="M5440 910 c0 -59 3 -81 12 -78 8 3 11 23 9 57 -3 62 11 65 40 11 23 -42 54 -74 65 -67 12 7 5 157 -7 157 -5 0 -9 -25 -9 -56 0 -31 -4 -54 -9 -52 -5 2 -25 25 -43 52 -51 74 -58 71 -58 -24z"/> </g> </svg>